<?xml version="1.0" encoding="UTF-8"?>
<svg version="1.1" xmlns="http://www.w3.org/2000/svg" width="272" height="273">
<path d="M0 0 C0.33 0 0.66 0 1 0 C1 87.45 1 174.9 1 265 C-86.45 265 -173.9 265 -264 265 C-264 264.67 -264 264.34 -264 264 C-176.88 264 -89.76 264 0 264 C0 243.54 0 223.08 0 202 C-9.57 202 -19.14 202 -29 202 C-29.33 175.6 -29.66 149.2 -30 122 C-36.62658496 131.090898 -36.62658496 131.090898 -42.9375 140.375 C-49.24262473 149.9152149 -55.77222811 159.29335069 -62.37109375 168.6328125 C-64.56304938 171.81824442 -66.61294355 175.09067801 -68.640625 178.3828125 C-69.08921875 178.91648438 -69.5378125 179.45015625 -70 180 C-70.99 180 -71.98 180 -73 180 C-74.796875 177.7265625 -74.796875 177.7265625 -76.75 174.625 C-77.81154297 172.97177734 -77.81154297 172.97177734 -78.89453125 171.28515625 C-79.58933594 170.20105469 -80.28414062 169.11695313 -81 168 C-82.13495199 166.34664421 -83.28005599 164.70018884 -84.4375 163.0625 C-88.27380803 157.6168564 -92.06324952 152.13922637 -95.8515625 146.66015625 C-96.96261354 145.05404506 -98.07503309 143.44888082 -99.1875 141.84375 C-103.26120169 135.96598041 -107.32401668 130.08094218 -111.375 124.1875 C-112.06589722 123.1826355 -112.06589722 123.1826355 -112.77075195 122.1574707 C-115.11505157 118.74672862 -117.45637662 115.33399601 -119.79296875 111.91796875 C-124.35047916 105.26105702 -128.93918191 98.62994437 -133.625 92.0625 C-134.26417358 91.1660376 -134.26417358 91.1660376 -134.91625977 90.25146484 C-136.81717736 87.5099997 -136.81717736 87.5099997 -139 85 C-141.20170337 84.88454614 -143.40715575 84.84028122 -145.61181641 84.82299805 C-146.30297546 84.81642685 -146.99413452 84.80985565 -147.70623779 84.80308533 C-150.00468038 84.78329941 -152.30305729 84.77167461 -154.6015625 84.76171875 C-155.38625286 84.75764322 -156.17094322 84.7535677 -156.97941208 84.74936867 C-161.13715097 84.72847972 -165.29485664 84.71419351 -169.45263672 84.70483398 C-173.73999015 84.69379767 -178.02682051 84.65943865 -182.31398964 84.61966228 C-185.61523371 84.59345351 -188.91635438 84.58513812 -192.21769333 84.58155251 C-193.79728073 84.57669305 -195.37686285 84.56509728 -196.95634842 84.54651451 C-199.17525133 84.52204382 -201.39281857 84.52310229 -203.61181641 84.5300293 C-205.50258408 84.52122993 -205.50258408 84.52122993 -207.43154907 84.51225281 C-211.93056875 85.12719309 -214.25003578 86.46159751 -218 89 C-221.33963698 93.63239968 -221.77703075 98.44978035 -221 104 C-220.1965333 106.21247913 -220.1965333 106.21247913 -219 108 C-216.94999129 108.80528889 -216.94999129 108.80528889 -215 109 C-215 109.66 -215 110.32 -215 111 C-214.40501709 111.17378174 -213.81003418 111.34756348 -213.19702148 111.52661133 C-193.5640429 117.32973457 -175.56501264 122.70678094 -163 140 C-157.29746629 150.71002177 -156.53163861 162.44435365 -160 174 C-165.2318092 187.16557249 -173.01770419 196.10451037 -186 202 C-193.19663516 204.75205324 -199.88890477 205.54973972 -207.5625 205.5 C-208.61099121 205.49355469 -209.65948242 205.48710937 -210.73974609 205.48046875 C-227.93143131 205.08096773 -242.76319317 199.00615975 -256 188 C-255.35817662 184.36863085 -253.79075302 181.91838385 -251.75 178.875 C-248.40924461 173.7571005 -245.60092383 168.52546492 -243 163 C-239.6460145 163.54255648 -237.14882597 165.0159869 -234.28027344 166.78125 C-223.24221636 173.56272226 -212.19789357 176.68628049 -199.25 174.3125 C-195.28527804 172.71136229 -193.05677703 170.98399663 -190 168 C-188.75118268 164.25354803 -188.37963529 160.88466472 -189 157 C-194.34865748 147.90728228 -204.91019995 145.65267134 -214.375 142.625 C-228.08539558 138.20314264 -240.12219215 132.38904308 -247.875 119.625 C-252.61747066 110.23618985 -253.34570623 99.44845106 -250.17578125 89.3828125 C-245.30469074 77.94633913 -237.29971725 69.2641253 -226 64 C-219.35111812 61.61089196 -213.16355075 60.50017327 -206.12255859 60.27856445 C-204.72514435 60.2200808 -204.72514435 60.2200808 -203.29949951 60.16041565 C-193.62211134 59.7819497 -183.93750271 59.61043405 -174.25439453 59.45532227 C-169.67445565 59.37505949 -165.10388566 59.22892296 -160.52783203 59.0246582 C-122.4066485 57.36345291 -122.4066485 57.36345291 -114.43371582 63.26556396 C-109.01847187 68.69294972 -106.03941544 74.79193627 -103.34965515 81.89109802 C-101.0558254 87.17488615 -97.49743775 91.46710371 -94 96 C-92.71612354 97.83690145 -91.44252076 99.68106658 -90.18359375 101.53515625 C-89.56419922 102.44716797 -88.94480469 103.35917969 -88.30664062 104.29882812 C-87.38141602 105.6668457 -87.38141602 105.6668457 -86.4375 107.0625 C-81.68061589 114.08174436 -76.88242804 121.06734646 -72 128 C-68.90840016 124.98742509 -66.53847796 122.00441201 -64.1875 118.375 C-61.73356608 114.63094641 -59.26715296 110.90864242 -56.6875 107.25 C-52.22372102 100.91366067 -47.84731045 94.5177951 -43.46142578 88.12744141 C-41.99573383 85.99378961 -40.52756246 83.86186566 -39.05859375 81.73046875 C-38.57745117 81.03195801 -38.09630859 80.33344727 -37.60058594 79.61376953 C-36.69417522 78.29800193 -35.78731418 76.98254437 -34.87988281 75.66748047 C-31.53550583 70.80980494 -28.27256009 65.90884013 -25 61 C-16.75 61 -8.5 61 0 61 C0 40.87 0 20.74 0 0 Z " transform="translate(264,0)"/>
<path d="M0 0 C3.77649392 3.55043619 6.69899069 7.25690619 9.5 11.625 C10.36207075 12.94350059 11.22542088 14.26116529 12.08984375 15.578125 C12.55116699 16.28259766 13.01249023 16.98707031 13.48779297 17.71289062 C16.29939516 21.96524602 19.18257461 26.16875135 22.0625 30.375 C22.63484375 31.21369629 23.2071875 32.05239258 23.796875 32.91650391 C24.59544922 34.08318604 24.59544922 34.08318604 25.41015625 35.2734375 C25.88590088 35.96872559 26.36164551 36.66401367 26.85180664 37.38037109 C27.90234188 38.95831156 27.90234188 38.95831156 29 40 C29.08858646 42.73894085 29.11523479 45.4525327 29.09765625 48.19140625 C29.0962413 49.01124496 29.09482635 49.83108368 29.09336853 50.67576599 C29.08775289 53.30471382 29.07519779 55.93357773 29.0625 58.5625 C29.05748701 60.34049357 29.05292376 62.11848846 29.04882812 63.89648438 C29.03862752 68.26438158 29.01905532 72.6320964 29 77 C19.1 77 9.2 77 -1 77 C-1.02259014 67.5510658 -1.04093781 58.10214952 -1.05181217 48.65319443 C-1.05703125 44.26569363 -1.06411124 39.87821227 -1.07543945 35.49072266 C-1.08630293 31.25674498 -1.0922842 27.022786 -1.09487724 22.78879547 C-1.09672524 21.17326819 -1.10033388 19.55774193 -1.10573006 17.9422226 C-1.11298637 15.6798837 -1.113989 13.4176221 -1.11352539 11.15527344 C-1.11685631 9.22334137 -1.11685631 9.22334137 -1.12025452 7.25238037 C-1.02273655 4.61492833 -0.79241856 2.49635274 0 0 Z " transform="translate(121,125)"/>
<path d="M0 0 C1.5625 1.1875 1.5625 1.1875 3 3 C2.6875 5.6875 2.6875 5.6875 2 8 C2.66 8.33 3.32 8.66 4 9 C3.01 9 2.02 9 1 9 C1.33 27.81 1.66 46.62 2 66 C0.02 66.495 0.02 66.495 -2 67 C-2 45.88 -2 24.76 -2 3 C-1.34 3 -0.68 3 0 3 C0 2.01 0 1.02 0 0 Z " transform="translate(124,131)"/>
<path d="M0 0 C1.65 1.65 3.3 3.3 5 5 C4.34 6.32 3.68 7.64 3 9 C2.34 9 1.68 9 1 9 C1 31.11 1 53.22 1 76 C9.91 76 18.82 76 28 76 C27.505 57.685 27.505 57.685 27 39 C27.66 39.33 28.32 39.66 29 40 C29 52.21 29 64.42 29 77 C19.1 77 9.2 77 -1 77 C-1.02259014 67.5510658 -1.04093781 58.10214952 -1.05181217 48.65319443 C-1.05703125 44.26569363 -1.06411124 39.87821227 -1.07543945 35.49072266 C-1.08630293 31.25674498 -1.0922842 27.022786 -1.09487724 22.78879547 C-1.09672524 21.17326819 -1.10033388 19.55774193 -1.10573006 17.9422226 C-1.11298637 15.6798837 -1.113989 13.4176221 -1.11352539 11.15527344 C-1.11685631 9.22334137 -1.11685631 9.22334137 -1.12025452 7.25238037 C-1.02273655 4.61492833 -0.79241856 2.49635274 0 0 Z " transform="translate(121,125)"/>
<path d="M0 0 C0.33 0 0.66 0 1 0 C1 11.22 1 22.44 1 34 C-7.58 34 -16.16 34 -25 34 C-23.68 33.34 -22.36 32.68 -21 32 C-20.67 31.67 -20.34 31.34 -20 31 C-17.46950598 30.92686433 -14.96695163 30.90752473 -12.4375 30.9375 C-11.72658203 30.94201172 -11.01566406 30.94652344 -10.28320312 30.95117188 C-8.52209987 30.96299136 -6.76103964 30.98092737 -5 31 C-4.67 30.34 -4.34 29.68 -4 29 C-3.01 29.66 -2.02 30.32 -1 31 C-1.33 31.66 -1.66 32.32 -2 33 C-1.34 33 -0.68 33 0 33 C-0.05329468 31.66038208 -0.05329468 31.66038208 -0.10766602 30.29370117 C-0.23692845 26.97841106 -0.36123132 23.66301197 -0.48217773 20.34741211 C-0.53552897 18.91276652 -0.5908529 17.47819286 -0.64819336 16.04370117 C-0.730297 13.98111481 -0.80528996 11.91837332 -0.87890625 9.85546875 C-0.9260376 8.61434326 -0.97316895 7.37321777 -1.02172852 6.09448242 C-1 3 -1 3 0 0 Z " transform="translate(148,167)"/>
<path d="M0 0 C3.01693943 2.85674795 5.40554531 5.82348931 7.75 9.25 C8.67039063 10.58804688 8.67039063 10.58804688 9.609375 11.953125 C10.06828125 12.62859375 10.5271875 13.3040625 11 14 C10.67 14.66 10.34 15.32 10 16 C9.21625 15.525625 8.4325 15.05125 7.625 14.5625 C6.11051322 13.66101977 4.5764103 12.78820515 3 12 C2.67 13.32 2.34 14.64 2 16 C1.34 16 0.68 16 0 16 C0 12.04 0 8.08 0 4 C-0.66 3.67 -1.32 3.34 -2 3 C-1.34 2.67 -0.68 2.34 0 2 C0 1.34 0 0.68 0 0 Z " transform="translate(126,132)"/>
<path d="M0 0 C8.25 0 16.5 0 25 0 C25 0.99 25 1.98 25 3 C16.75 3 8.5 3 0 3 C0 2.01 0 1.02 0 0 Z " transform="translate(238,198)"/>
<path d="M0 0 C0.33 0 0.66 0 1 0 C0.56577288 5.42783897 -0.47342864 8.80623946 -4 13 C-7.25 14.875 -7.25 14.875 -10 16 C-8.55901911 11.87321179 -6.52700506 8.69813572 -3.9375 5.1875 C-3.22464844 4.21167969 -2.51179687 3.23585938 -1.77734375 2.23046875 C-1.19082031 1.49441406 -0.60429687 0.75835937 0 0 Z " transform="translate(227,79)"/>
<path d="M0 0 C-0.38496306 5.2611618 -2.22615048 9.31340712 -6 13 C-6.99 13 -7.98 13 -9 13 C-9 12.34 -9 11.68 -9 11 C-8.34 11 -7.68 11 -7 11 C-7 10.34 -7 9.68 -7 9 C-6.34 9 -5.68 9 -5 9 C-5.33 6.69 -5.66 4.38 -6 2 C-3 0 -3 0 0 0 Z " transform="translate(200,167)"/>
<path d="M0 0 C1.18613892 0.00785522 1.18613892 0.00785522 2.39624023 0.01586914 C3.67724609 0.02070312 3.67724609 0.02070312 4.98413086 0.02563477 C5.88196289 0.03401367 6.77979492 0.04239258 7.70483398 0.05102539 C8.6065332 0.05553711 9.50823242 0.06004883 10.43725586 0.06469727 C12.67234712 0.07652315 14.90730835 0.09300319 17.14233398 0.11352539 C17.14233398 0.77352539 17.14233398 1.43352539 17.14233398 2.11352539 C16.02213867 2.16250977 14.90194336 2.21149414 13.74780273 2.26196289 C12.27512196 2.33700395 10.80246692 2.41255121 9.32983398 2.48852539 C8.5918457 2.51946289 7.85385742 2.55040039 7.09350586 2.58227539 C3.32340284 2.78698687 1.34582658 2.97786366 -1.85766602 5.11352539 C-2.42016602 3.17602539 -2.42016602 3.17602539 -2.85766602 1.11352539 C-1.85766602 0.11352539 -1.85766602 0.11352539 0 0 Z " transform="translate(245.857666015625,61.886474609375)"/>
<path d="M0 0 C7.92 0 15.84 0 24 0 C24 0.33 24 0.66 24 1 C14.595 1.495 14.595 1.495 5 2 C5 3.32 5 4.64 5 6 C4.34 6 3.68 6 3 6 C3 5.34 3 4.68 3 4 C1.35 4.33 -0.3 4.66 -2 5 C-1.34 3.35 -0.68 1.7 0 0 Z " transform="translate(239,61)"/>
<path d="M0 0 C1.32 0.33 2.64 0.66 4 1 C4.33 2.65 4.66 4.3 5 6 C4.38125 6.28875 3.7625 6.5775 3.125 6.875 C0.86674235 7.93720042 0.86674235 7.93720042 -1 10 C-2.23076923 4.58461538 -2.23076923 4.58461538 -1.0625 1.625 C-0.5365625 0.820625 -0.5365625 0.820625 0 0 Z " transform="translate(21,163)"/>
<path d="M0 0 C3.91121498 0.68936071 7.55508596 1.78250181 11.3125 3.0625 C12.38113281 3.42472656 13.44976562 3.78695312 14.55078125 4.16015625 C15.76314453 4.57587891 15.76314453 4.57587891 17 5 C15.25 6.125 15.25 6.125 13 7 C11.046875 6.1640625 11.046875 6.1640625 9 5 C6.64435404 4.55188863 6.64435404 4.55188863 4.25 4.375 C3.05117188 4.26285156 3.05117188 4.26285156 1.828125 4.1484375 C1.22484375 4.09945312 0.6215625 4.05046875 0 4 C0 2.68 0 1.36 0 0 Z " transform="translate(56,114)"/>
<path d="M0 0 C0.33 0.66 0.66 1.32 1 2 C1.66 2.33 2.32 2.66 3 3 C4.33333333 3.66666667 5.66666667 4.33333333 7 5 C7.33 4.34 7.66 3.68 8 3 C8 3.66 8 4.32 8 5 C8.99 5 9.98 5 11 5 C11 5.66 11 6.32 11 7 C11.99 7.33 12.98 7.66 14 8 C7.16018724 7.48378772 1.36123316 5.51409031 -5 3 C-2 1 -2 1 0 0 Z " transform="translate(30,196)"/>
<path d="M0 0 C0.99 0.33 1.98 0.66 3 1 C1.625 2.5 1.625 2.5 0 4 C-0.66 4 -1.32 4 -2 4 C-1.67 6.31 -1.34 8.62 -1 11 C-1.66 11 -2.32 11 -3 11 C-3 11.66 -3 12.32 -3 13 C-5 12 -5 12 -7 9 C-6.34 8.01 -5.68 7.02 -5 6 C-4.67 6.33 -4.34 6.66 -4 7 C-3.896875 6.401875 -3.79375 5.80375 -3.6875 5.1875 C-2.91123545 2.71756736 -1.92911079 1.67748765 0 0 Z " transform="translate(196,165)"/>
<path d="M0 0 C-0.33 1.65 -0.66 3.3 -1 5 C-1.99 5.33 -2.98 5.66 -4 6 C-4.33 5.34 -4.66 4.68 -5 4 C-5 5.32 -5 6.64 -5 8 C-5.99 9.485 -5.99 9.485 -7 11 C-7.33 10.01 -7.66 9.02 -8 8 C-10.01508358 7.26676204 -10.01508358 7.26676204 -12 7 C-10.70982586 6.01886757 -9.41780894 5.04015801 -8.125 4.0625 C-7.04605469 3.24458984 -7.04605469 3.24458984 -5.9453125 2.41015625 C-2.62049861 0 -2.62049861 0 0 0 Z " transform="translate(38,65)"/>
<path d="M0 0 C1.65 1.65 3.3 3.3 5 5 C4.34 6.32 3.68 7.64 3 9 C2.34 9 1.68 9 1 9 C1 10.65 1 12.3 1 14 C0.67 14 0.34 14 0 14 C-0.19627391 12.41773035 -0.38165538 10.83410729 -0.5625 9.25 C-0.66691406 8.36828125 -0.77132812 7.4865625 -0.87890625 6.578125 C-0.99456676 4.11567549 -0.73638695 2.33461936 0 0 Z " transform="translate(121,125)"/>
<path d="M0 0 C3.3 0.99 6.6 1.98 10 3 C9.01 3.495 9.01 3.495 8 4 C8 4.99 8 5.98 8 7 C6.35 7.33 4.7 7.66 3 8 C3 6.68 3 5.36 3 4 C2.01 3.34 1.02 2.68 0 2 C0 1.34 0 0.68 0 0 Z " transform="translate(35,172)"/>
<path d="M0 0 C0.33 0 0.66 0 1 0 C1.06058594 0.61488281 1.12117188 1.22976562 1.18359375 1.86328125 C1.26738281 2.67152344 1.35117188 3.47976562 1.4375 4.3125 C1.51871094 5.11300781 1.59992188 5.91351563 1.68359375 6.73828125 C1.95265693 9.16087179 1.95265693 9.16087179 3 12 C2.34 12 1.68 12 1 12 C0.67 12.99 0.34 13.98 0 15 C-3 15 -3 15 -5 14 C-4.52949219 13.62230469 -4.05898437 13.24460938 -3.57421875 12.85546875 C-1.50320971 10.41445314 -1.29313284 8.45509934 -0.8125 5.3125 C-0.65394531 4.31863281 -0.49539062 3.32476562 -0.33203125 2.30078125 C-0.22246094 1.54152344 -0.11289063 0.78226563 0 0 Z " transform="translate(76,157)"/>
<path d="M0 0 C2.60608273 2.5162178 4.89381685 5.05134359 7 8 C6.67 8.66 6.34 9.32 6 10 C4.68 10 3.36 10 2 10 C-1.125 3.375 -1.125 3.375 0 0 Z " transform="translate(146,63)"/>
<path d="M0 0 C0.66 0 1.32 0 2 0 C2 0.99 2 1.98 2 3 C2.66 3 3.32 3 4 3 C2.25 7.875 2.25 7.875 0 9 C-0.66 6.69 -1.32 4.38 -2 2 C-1.34 1.34 -0.68 0.68 0 0 Z " transform="translate(201,157)"/>
<path d="M0 0 C1.32 0.33 2.64 0.66 4 1 C4 1.66 4 2.32 4 3 C5.32 3.66 6.64 4.32 8 5 C7.34 5 6.68 5 6 5 C5.67 5.99 5.34 6.98 5 8 C4.34 8 3.68 8 3 8 C1.9375 6.125 1.9375 6.125 1 4 C1.33 3.34 1.66 2.68 2 2 C1.34 2 0.68 2 0 2 C0 1.34 0 0.68 0 0 Z " transform="translate(45,108)"/>
<path d="M0 0 C0.33 0.99 0.66 1.98 1 3 C0.01 4.485 0.01 4.485 -1 6 C-0.01 6.33 0.98 6.66 2 7 C2.33 7.99 2.66 8.98 3 10 C2.01 10 1.02 10 0 10 C-1.38671875 8.46875 -1.38671875 8.46875 -2.6875 6.5 C-3.12449219 5.8503125 -3.56148437 5.200625 -4.01171875 4.53125 C-4.33785156 4.0259375 -4.66398438 3.520625 -5 3 C-4.67 2.34 -4.34 1.68 -4 1 C-2.02 1.495 -2.02 1.495 0 2 C0 1.34 0 0.68 0 0 Z " transform="translate(138,93)"/>
<path d="M0 0 C0 1.65 0 3.3 0 5 C-0.99 5.33 -1.98 5.66 -3 6 C-4.5 4.6875 -4.5 4.6875 -6 3 C-6 2.01 -6 1.02 -6 0 C-3 -1 -3 -1 0 0 Z " transform="translate(22,86)"/>
<path d="M0 0 C0.99 0 1.98 0 3 0 C2.67 1.32 2.34 2.64 2 4 C3.32 4.33 4.64 4.66 6 5 C-0.28571429 7.42857143 -0.28571429 7.42857143 -4 6 C-3.01 5.34 -2.02 4.68 -1 4 C-0.27617533 1.94074861 -0.27617533 1.94074861 0 0 Z " transform="translate(72,197)"/>
<path d="M0 0 C0.33 0.99 0.66 1.98 1 3 C2.32 2.34 3.64 1.68 5 1 C4.67 3.97 4.34 6.94 4 10 C1.37886292 7.37886292 -0.19642667 5.17772443 -2 2 C-1.34 2 -0.68 2 0 2 C0 1.34 0 0.68 0 0 Z " transform="translate(184,164)"/>
<path d="M0 0 C1.32 0.66 2.64 1.32 4 2 C3.01 3.32 2.02 4.64 1 6 C-3.455 5.01 -3.455 5.01 -8 4 C-4 3 -4 3 -2 4 C-1.34 2.68 -0.68 1.36 0 0 Z " transform="translate(61,140)"/>
<path d="M0 0 C0 0.99 0 1.98 0 3 C0.66 3.33 1.32 3.66 2 4 C1.34 5.32 0.68 6.64 0 8 C-1.65 5.69 -3.3 3.38 -5 1 C-2 0 -2 0 0 0 Z " transform="translate(75,149)"/>
<path d="M0 0 C0.66 0 1.32 0 2 0 C2 0.66 2 1.32 2 2 C2.99 2 3.98 2 5 2 C5 2.66 5 3.32 5 4 C4.34 4 3.68 4 3 4 C3 4.66 3 5.32 3 6 C2.01 6.33 1.02 6.66 0 7 C-1.125 2.25 -1.125 2.25 0 0 Z " transform="translate(207,110)"/>
<path d="M0 0 C0.99 0.33 1.98 0.66 3 1 C3 1.66 3 2.32 3 3 C2.01 3.66 1.02 4.32 0 5 C0 5.66 0 6.32 0 7 C-2.5 8.625 -2.5 8.625 -5 10 C-3.66511872 6.40608886 -2.03977277 3.24509304 0 0 Z " transform="translate(15,174)"/>
<path d="M0 0 C2.31 1.98 4.62 3.96 7 6 C6.67 6.66 6.34 7.32 6 8 C5.01 8 4.02 8 3 8 C1.5268006 5.25002779 0.77595125 3.10380501 0 0 Z " transform="translate(91,130)"/>
<path d="M0 0 C2.49361571 1.20381448 4.68143083 2.45428722 7 4 C7.6875 6.125 7.6875 6.125 8 8 C7.01 8 6.02 8 5 8 C3.61328125 6.25 3.61328125 6.25 2.3125 4 C1.87550781 3.2575 1.43851563 2.515 0.98828125 1.75 C0.66214844 1.1725 0.33601562 0.595 0 0 Z " transform="translate(151,121)"/>
<path d="M0 0 C0.99 0.33 1.98 0.66 3 1 C1.8553125 1.8971875 1.8553125 1.8971875 0.6875 2.8125 C-1.3483575 4.46959332 -3.1978279 6.10297674 -5 8 C-5.66 7.34 -6.32 6.68 -7 6 C-6.01 6 -5.02 6 -4 6 C-4 4.68 -4 3.36 -4 2 C-2.68 2 -1.36 2 0 2 C0 1.34 0 0.68 0 0 Z " transform="translate(48,84)"/>
<path d="M0 0 C0.66 0.99 1.32 1.98 2 3 C2.33 3.33 2.66 3.66 3 4 C3.33 4.99 3.66 5.98 4 7 C3.34 7.66 2.68 8.32 2 9 C-0.475 5.04 -0.475 5.04 -3 1 C-2.01 0.67 -1.02 0.34 0 0 Z " transform="translate(130,85)"/>
<path d="M0 0 C0.66 0 1.32 0 2 0 C2.33 0.66 2.66 1.32 3 2 C3.99 2 4.98 2 6 2 C6.33 4.64 6.66 7.28 7 10 C3.72713318 7.2180632 2.03572303 3.72045933 0 0 Z " transform="translate(163,138)"/>
<path d="M0 0 C0.66 0.33 1.32 0.66 2 1 C1.25 3.4375 1.25 3.4375 0 6 C-2.125 6.8125 -2.125 6.8125 -4 7 C-2.92598892 4.08482708 -2.22189824 2.22189824 0 0 Z " transform="translate(205,111)"/>
<path d="M0 0 C1.32 1.32 2.64 2.64 4 4 C3.67 4.66 3.34 5.32 3 6 C2.34 5.67 1.68 5.34 1 5 C1 5.99 1 6.98 1 8 C0.34 8 -0.32 8 -1 8 C-1.93065133 5.39417629 -2.14917407 4.35801776 -1.0625 1.75 C-0.711875 1.1725 -0.36125 0.595 0 0 Z " transform="translate(171,99)"/>
<path d="M0 0 C0.99 0.33 1.98 0.66 3 1 C1.71937515 2.7074998 0.38232443 4.37373596 -1 6 C-1.66 6 -2.32 6 -3 6 C-2.42655063 3.13275314 -2.1385485 2.1385485 0 0 Z " transform="translate(91,189)"/>
<path d="M0 0 C2.1519437 3.22791555 2.20086443 4.28400809 2 8 C1.01 8 0.02 8 -1 8 C-1.125 2.25 -1.125 2.25 0 0 Z " transform="translate(98,173)"/>
<path d="M0 0 C2.60608273 2.5162178 4.89381685 5.05134359 7 8 C6.67 8.66 6.34 9.32 6 10 C2.46413986 6.82679218 0.41421969 4.83256305 0 0 Z " transform="translate(130,138)"/>
<path d="M0 0 C0 0.99 0 1.98 0 3 C-3 5.1875 -3 5.1875 -6 7 C-6 4 -6 4 -4.625 2.3125 C-3 1 -3 1 -1 1 C-0.67 0.67 -0.34 0.34 0 0 Z " transform="translate(224,88)"/>
<path d="M0 0 C1.32 0.33 2.64 0.66 4 1 C3.67 1.66 3.34 2.32 3 3 C2.34 3 1.68 3 1 3 C0.67 3.99 0.34 4.98 0 6 C-0.66 6 -1.32 6 -2 6 C-1.34 4.02 -0.68 2.04 0 0 Z " transform="translate(21,163)"/>
<path d="M0 0 C0.99 0.33 1.98 0.66 3 1 C0.525 4.465 0.525 4.465 -2 8 C-3 4 -3 4 -2 2 C-1.34 2 -0.68 2 0 2 C0 1.34 0 0.68 0 0 Z " transform="translate(222,134)"/>
<path d="M0 0 C0.66 0 1.32 0 2 0 C1.67 2.64 1.34 5.28 1 8 C0.01 7.67 -0.98 7.34 -2 7 C-1.34 4.69 -0.68 2.38 0 0 Z " transform="translate(156,117)"/>
<path d="M0 0 C2 3 2 3 3 5 C2.67 5.66 2.34 6.32 2 7 C0.68 6.67 -0.64 6.34 -2 6 C-1.49396008 3.83125748 -1.00016187 2.00032373 0 0 Z " transform="translate(164,91)"/>
<path d="M0 0 C0.33 0.66 0.66 1.32 1 2 C1.99 2 2.98 2 4 2 C4 2.66 4 3.32 4 4 C4.99 4.33 5.98 4.66 7 5 C0.84765625 4.4140625 0.84765625 4.4140625 -1 4 C-1.33 3.34 -1.66 2.68 -2 2 C-1.34 2 -0.68 2 0 2 C0 1.34 0 0.68 0 0 Z " transform="translate(37,199)"/>
<path d="M0 0 C0.99 0 1.98 0 3 0 C2.01 2.97 1.02 5.94 0 9 C-0.33 9 -0.66 9 -1 9 C-1 7.35 -1 5.7 -1 4 C-0.34 4 0.32 4 1 4 C0.67 2.68 0.34 1.36 0 0 Z " transform="translate(101,172)"/>
<path d="M0 0 C0.33 0 0.66 0 1 0 C1.33 2.64 1.66 5.28 2 8 C1.67 7.34 1.34 6.68 1 6 C0.01 6.33 -0.98 6.66 -2 7 C-1.125 1.125 -1.125 1.125 0 0 Z " transform="translate(18,169)"/>
<path d="M0 0 C0.99 0 1.98 0 3 0 C2.67 3.96 2.34 7.92 2 12 C1.67 12 1.34 12 1 12 C0.67 8.04 0.34 4.08 0 0 Z " transform="translate(40,92)"/>
<path d="M0 0 C0.33 0 0.66 0 1 0 C1.75 2.75 1.75 2.75 2 6 C0.0625 8.375 0.0625 8.375 -2 10 C-1.54177532 6.53058454 -1.10868317 3.32604951 0 0 Z " transform="translate(15,86)"/>
<path d="M0 0 C0.66 0.33 1.32 0.66 2 1 C2.625 3.5625 2.625 3.5625 3 6 C1.68 6.33 0.36 6.66 -1 7 C-0.67 4.69 -0.34 2.38 0 0 Z " transform="translate(145,67)"/>
</svg>
